<svg xmlns="http://www.w3.org/2000/svg" xmlns:xlink="http://www.w3.org/1999/xlink" width="48" zoomAndPan="magnify" viewBox="0 0 36 36.000001" height="48" preserveAspectRatio="xMidYMid meet" version="1.0"><defs><clipPath id="e092f5c360"><path d="M 0.488281 0 L 35.511719 0 L 35.511719 35.027344 L 0.488281 35.027344 Z M 0.488281 0 " clip-rule="nonzero"/></clipPath><clipPath id="fb852fea51"><path d="M 0.488281 7.835938 L 35.511719 7.835938 L 35.511719 27.539062 L 0.488281 27.539062 Z M 0.488281 7.835938 " clip-rule="nonzero"/></clipPath><clipPath id="1063cbac47"><path d="M -1.222656 17.703125 C -1.222656 23.144531 7.230469 27.554688 17.652344 27.554688 C 28.078125 27.554688 36.53125 23.144531 36.53125 17.703125 C 36.53125 12.261719 28.078125 7.851562 17.652344 7.851562 C 7.230469 7.851562 -1.222656 12.261719 -1.222656 17.703125 " clip-rule="nonzero"/></clipPath><clipPath id="5541fbedef"><path d="M -1.222656 17.703125 C -1.222656 23.144531 7.230469 27.554688 17.652344 27.554688 C 28.078125 27.554688 36.53125 23.144531 36.53125 17.703125 C 36.53125 12.261719 28.078125 7.851562 17.652344 7.851562 C 7.230469 7.851562 -1.222656 12.261719 -1.222656 17.703125 " clip-rule="nonzero"/></clipPath><radialGradient gradientTransform="matrix(1.003921, 0, 0, 0.996079, 10.110766, 11.313355)" gradientUnits="userSpaceOnUse" r="24.691643" cx="0" id="1a5679f510" cy="0" fx="0" fy="0"><stop stop-opacity="1" stop-color="rgb(68.199158%, 69.799805%, 83.499146%)" offset="0"/><stop stop-opacity="1" stop-color="rgb(68.199158%, 69.799805%, 83.499146%)" offset="0.25"/><stop stop-opacity="1" stop-color="rgb(68.164062%, 69.764709%, 83.473206%)" offset="0.296875"/><stop stop-opacity="1" stop-color="rgb(67.956543%, 69.555664%, 83.317566%)" offset="0.300781"/><stop stop-opacity="1" stop-color="rgb(67.608643%, 69.20929%, 83.059692%)" offset="0.304688"/><stop stop-opacity="1" stop-color="rgb(67.260742%, 68.861389%, 82.800293%)" offset="0.308594"/><stop stop-opacity="1" stop-color="rgb(66.914368%, 68.513489%, 82.542419%)" offset="0.3125"/><stop stop-opacity="1" stop-color="rgb(66.566467%, 68.167114%, 82.28302%)" offset="0.316406"/><stop stop-opacity="1" stop-color="rgb(66.220093%, 67.819214%, 82.025146%)" offset="0.320312"/><stop stop-opacity="1" stop-color="rgb(65.872192%, 67.472839%, 81.765747%)" offset="0.324219"/><stop stop-opacity="1" stop-color="rgb(65.525818%, 67.124939%, 81.506348%)" offset="0.328125"/><stop stop-opacity="1" stop-color="rgb(65.177917%, 66.778564%, 81.248474%)" offset="0.332031"/><stop stop-opacity="1" stop-color="rgb(64.831543%, 66.430664%, 80.989075%)" offset="0.335938"/><stop stop-opacity="1" stop-color="rgb(64.483643%, 66.08429%, 80.731201%)" offset="0.339844"/><stop stop-opacity="1" stop-color="rgb(64.135742%, 65.736389%, 80.471802%)" offset="0.34375"/><stop stop-opacity="1" stop-color="rgb(63.789368%, 65.388489%, 80.213928%)" offset="0.347656"/><stop stop-opacity="1" stop-color="rgb(63.441467%, 65.042114%, 79.954529%)" offset="0.351562"/><stop stop-opacity="1" stop-color="rgb(63.095093%, 64.694214%, 79.696655%)" offset="0.355469"/><stop stop-opacity="1" stop-color="rgb(62.747192%, 64.347839%, 79.437256%)" offset="0.359375"/><stop stop-opacity="1" stop-color="rgb(62.400818%, 63.999939%, 79.179382%)" offset="0.363281"/><stop stop-opacity="1" stop-color="rgb(62.052917%, 63.653564%, 78.919983%)" offset="0.367188"/><stop stop-opacity="1" stop-color="rgb(61.706543%, 63.305664%, 78.662109%)" offset="0.371094"/><stop stop-opacity="1" stop-color="rgb(61.358643%, 62.95929%, 78.40271%)" offset="0.375"/><stop stop-opacity="1" stop-color="rgb(61.010742%, 62.611389%, 78.144836%)" offset="0.378906"/><stop stop-opacity="1" stop-color="rgb(60.664368%, 62.263489%, 77.885437%)" offset="0.382812"/><stop stop-opacity="1" stop-color="rgb(60.316467%, 61.917114%, 77.627563%)" offset="0.386719"/><stop stop-opacity="1" stop-color="rgb(59.970093%, 61.569214%, 77.368164%)" offset="0.390625"/><stop stop-opacity="1" stop-color="rgb(59.622192%, 61.222839%, 77.108765%)" offset="0.394531"/><stop stop-opacity="1" stop-color="rgb(59.275818%, 60.874939%, 76.850891%)" offset="0.398438"/><stop stop-opacity="1" stop-color="rgb(58.927917%, 60.528564%, 76.591492%)" offset="0.402344"/><stop stop-opacity="1" stop-color="rgb(58.581543%, 60.180664%, 76.333618%)" offset="0.40625"/><stop stop-opacity="1" stop-color="rgb(58.233643%, 59.83429%, 76.074219%)" offset="0.410156"/><stop stop-opacity="1" stop-color="rgb(57.885742%, 59.486389%, 75.816345%)" offset="0.414062"/><stop stop-opacity="1" stop-color="rgb(57.539368%, 59.138489%, 75.556946%)" offset="0.417969"/><stop stop-opacity="1" stop-color="rgb(57.191467%, 58.792114%, 75.299072%)" offset="0.421875"/><stop stop-opacity="1" stop-color="rgb(56.845093%, 58.444214%, 75.039673%)" offset="0.425781"/><stop stop-opacity="1" stop-color="rgb(56.497192%, 58.097839%, 74.781799%)" offset="0.429688"/><stop stop-opacity="1" stop-color="rgb(56.150818%, 57.749939%, 74.5224%)" offset="0.433594"/><stop stop-opacity="1" stop-color="rgb(55.802917%, 57.403564%, 74.264526%)" offset="0.4375"/><stop stop-opacity="1" stop-color="rgb(55.456543%, 57.055664%, 74.005127%)" offset="0.441406"/><stop stop-opacity="1" stop-color="rgb(55.108643%, 56.70929%, 73.747253%)" offset="0.445312"/><stop stop-opacity="1" stop-color="rgb(54.760742%, 56.361389%, 73.487854%)" offset="0.449219"/><stop stop-opacity="1" stop-color="rgb(54.414368%, 56.013489%, 73.22998%)" offset="0.453125"/><stop stop-opacity="1" stop-color="rgb(54.066467%, 55.667114%, 72.970581%)" offset="0.457031"/><stop stop-opacity="1" stop-color="rgb(53.720093%, 55.319214%, 72.711182%)" offset="0.460938"/><stop stop-opacity="1" stop-color="rgb(53.372192%, 54.972839%, 72.453308%)" offset="0.464844"/><stop stop-opacity="1" stop-color="rgb(53.025818%, 54.624939%, 72.193909%)" offset="0.46875"/><stop stop-opacity="1" stop-color="rgb(52.677917%, 54.278564%, 71.936035%)" offset="0.472656"/><stop stop-opacity="1" stop-color="rgb(52.331543%, 53.930664%, 71.676636%)" offset="0.476562"/><stop stop-opacity="1" stop-color="rgb(51.983643%, 53.58429%, 71.418762%)" offset="0.480469"/><stop stop-opacity="1" stop-color="rgb(51.635742%, 53.236389%, 71.159363%)" offset="0.484375"/><stop stop-opacity="1" stop-color="rgb(51.289368%, 52.888489%, 70.901489%)" offset="0.488281"/><stop stop-opacity="1" stop-color="rgb(50.941467%, 52.542114%, 70.64209%)" offset="0.492188"/><stop stop-opacity="1" stop-color="rgb(50.595093%, 52.194214%, 70.384216%)" offset="0.496094"/><stop stop-opacity="1" stop-color="rgb(50.247192%, 51.847839%, 70.124817%)" offset="0.5"/><stop stop-opacity="1" stop-color="rgb(49.900818%, 51.499939%, 69.866943%)" offset="0.503906"/><stop stop-opacity="1" stop-color="rgb(49.552917%, 51.153564%, 69.607544%)" offset="0.507812"/><stop stop-opacity="1" stop-color="rgb(49.206543%, 50.805664%, 69.34967%)" offset="0.511719"/><stop stop-opacity="1" stop-color="rgb(48.858643%, 50.45929%, 69.090271%)" offset="0.515625"/><stop stop-opacity="1" stop-color="rgb(48.510742%, 50.111389%, 68.832397%)" offset="0.519531"/><stop stop-opacity="1" stop-color="rgb(48.164368%, 49.763489%, 68.572998%)" offset="0.523438"/><stop stop-opacity="1" stop-color="rgb(47.816467%, 49.417114%, 68.313599%)" offset="0.527344"/><stop stop-opacity="1" stop-color="rgb(47.470093%, 49.069214%, 68.055725%)" offset="0.53125"/><stop stop-opacity="1" stop-color="rgb(47.122192%, 48.722839%, 67.796326%)" offset="0.535156"/><stop stop-opacity="1" stop-color="rgb(46.775818%, 48.374939%, 67.538452%)" offset="0.539062"/><stop stop-opacity="1" stop-color="rgb(46.427917%, 48.028564%, 67.279053%)" offset="0.542969"/><stop stop-opacity="1" stop-color="rgb(46.081543%, 47.680664%, 67.021179%)" offset="0.546875"/><stop stop-opacity="1" stop-color="rgb(45.733643%, 47.33429%, 66.76178%)" offset="0.550781"/><stop stop-opacity="1" stop-color="rgb(45.385742%, 46.986389%, 66.503906%)" offset="0.554688"/><stop stop-opacity="1" stop-color="rgb(45.039368%, 46.638489%, 66.244507%)" offset="0.558594"/><stop stop-opacity="1" stop-color="rgb(44.691467%, 46.292114%, 65.986633%)" offset="0.5625"/><stop stop-opacity="1" stop-color="rgb(44.345093%, 45.944214%, 65.727234%)" offset="0.566406"/><stop stop-opacity="1" stop-color="rgb(43.997192%, 45.597839%, 65.46936%)" offset="0.570312"/><stop stop-opacity="1" stop-color="rgb(43.650818%, 45.249939%, 65.209961%)" offset="0.574219"/><stop stop-opacity="1" stop-color="rgb(43.302917%, 44.903564%, 64.952087%)" offset="0.578125"/><stop stop-opacity="1" stop-color="rgb(42.956543%, 44.555664%, 64.692688%)" offset="0.582031"/><stop stop-opacity="1" stop-color="rgb(42.608643%, 44.20929%, 64.434814%)" offset="0.585938"/><stop stop-opacity="1" stop-color="rgb(42.260742%, 43.861389%, 64.175415%)" offset="0.589844"/><stop stop-opacity="1" stop-color="rgb(41.914368%, 43.513489%, 63.916016%)" offset="0.59375"/><stop stop-opacity="1" stop-color="rgb(41.566467%, 43.167114%, 63.658142%)" offset="0.597656"/><stop stop-opacity="1" stop-color="rgb(41.220093%, 42.819214%, 63.398743%)" offset="0.601562"/><stop stop-opacity="1" stop-color="rgb(40.872192%, 42.472839%, 63.140869%)" offset="0.605469"/><stop stop-opacity="1" stop-color="rgb(40.525818%, 42.124939%, 62.88147%)" offset="0.609375"/><stop stop-opacity="1" stop-color="rgb(40.177917%, 41.778564%, 62.623596%)" offset="0.613281"/><stop stop-opacity="1" stop-color="rgb(39.831543%, 41.430664%, 62.364197%)" offset="0.617188"/><stop stop-opacity="1" stop-color="rgb(39.483643%, 41.08429%, 62.106323%)" offset="0.621094"/><stop stop-opacity="1" stop-color="rgb(39.135742%, 40.736389%, 61.846924%)" offset="0.625"/><stop stop-opacity="1" stop-color="rgb(38.789368%, 40.388489%, 61.58905%)" offset="0.628906"/><stop stop-opacity="1" stop-color="rgb(38.441467%, 40.042114%, 61.329651%)" offset="0.632812"/><stop stop-opacity="1" stop-color="rgb(38.095093%, 39.694214%, 61.071777%)" offset="0.636719"/><stop stop-opacity="1" stop-color="rgb(37.747192%, 39.347839%, 60.812378%)" offset="0.640625"/><stop stop-opacity="1" stop-color="rgb(37.400818%, 38.999939%, 60.554504%)" offset="0.644531"/><stop stop-opacity="1" stop-color="rgb(37.052917%, 38.653564%, 60.295105%)" offset="0.648438"/><stop stop-opacity="1" stop-color="rgb(36.706543%, 38.305664%, 60.037231%)" offset="0.652344"/><stop stop-opacity="1" stop-color="rgb(36.358643%, 37.95929%, 59.777832%)" offset="0.65625"/><stop stop-opacity="1" stop-color="rgb(36.010742%, 37.611389%, 59.518433%)" offset="0.660156"/><stop stop-opacity="1" stop-color="rgb(35.664368%, 37.263489%, 59.260559%)" offset="0.664062"/><stop stop-opacity="1" stop-color="rgb(35.316467%, 36.917114%, 59.00116%)" offset="0.667969"/><stop stop-opacity="1" stop-color="rgb(34.970093%, 36.569214%, 58.743286%)" offset="0.671875"/><stop stop-opacity="1" stop-color="rgb(34.622192%, 36.222839%, 58.483887%)" offset="0.675781"/><stop stop-opacity="1" stop-color="rgb(34.275818%, 35.874939%, 58.226013%)" offset="0.679688"/><stop stop-opacity="1" stop-color="rgb(33.927917%, 35.528564%, 57.966614%)" offset="0.683594"/><stop stop-opacity="1" stop-color="rgb(33.581543%, 35.180664%, 57.70874%)" offset="0.6875"/><stop stop-opacity="1" stop-color="rgb(33.233643%, 34.83429%, 57.449341%)" offset="0.691406"/><stop stop-opacity="1" stop-color="rgb(32.885742%, 34.486389%, 57.191467%)" offset="0.695312"/><stop stop-opacity="1" stop-color="rgb(32.539368%, 34.138489%, 56.932068%)" offset="0.699219"/><stop stop-opacity="1" stop-color="rgb(32.191467%, 33.792114%, 56.674194%)" offset="0.703125"/><stop stop-opacity="1" stop-color="rgb(31.845093%, 33.444214%, 56.414795%)" offset="0.707031"/><stop stop-opacity="1" stop-color="rgb(31.497192%, 33.097839%, 56.156921%)" offset="0.710938"/><stop stop-opacity="1" stop-color="rgb(31.150818%, 32.749939%, 55.897522%)" offset="0.714844"/><stop stop-opacity="1" stop-color="rgb(30.802917%, 32.403564%, 55.639648%)" offset="0.71875"/><stop stop-opacity="1" stop-color="rgb(30.456543%, 32.055664%, 55.380249%)" offset="0.722656"/><stop stop-opacity="1" stop-color="rgb(30.108643%, 31.70929%, 55.122375%)" offset="0.726562"/><stop stop-opacity="1" stop-color="rgb(29.760742%, 31.361389%, 54.862976%)" offset="0.730469"/><stop stop-opacity="1" stop-color="rgb(29.414368%, 31.013489%, 54.603577%)" offset="0.734375"/><stop stop-opacity="1" stop-color="rgb(29.066467%, 30.667114%, 54.345703%)" offset="0.738281"/><stop stop-opacity="1" stop-color="rgb(28.720093%, 30.319214%, 54.086304%)" offset="0.742188"/><stop stop-opacity="1" stop-color="rgb(28.372192%, 29.972839%, 53.82843%)" offset="0.746094"/><stop stop-opacity="1" stop-color="rgb(28.199768%, 29.798889%, 53.69873%)" offset="1"/></radialGradient><clipPath id="738e1919a7"><path d="M 0.488281 8 L 35.511719 8 L 35.511719 27 L 0.488281 27 Z M 0.488281 8 " clip-rule="nonzero"/></clipPath></defs><g clip-path="url(#e092f5c360)"><path fill="#ffffff" d="M 0.488281 0 L 35.511719 0 L 35.511719 35.027344 L 0.488281 35.027344 Z M 0.488281 0 " fill-opacity="1" fill-rule="nonzero"/><path fill="#ffffff" d="M 0.488281 0 L 35.511719 0 L 35.511719 35.027344 L 0.488281 35.027344 Z M 0.488281 0 " fill-opacity="1" fill-rule="nonzero"/></g><g clip-path="url(#fb852fea51)"><g clip-path="url(#1063cbac47)"><g clip-path="url(#5541fbedef)"><path fill="url(#1a5679f510)" d="M 0.488281 7.851562 L 0.488281 27.539062 L 35.511719 27.539062 L 35.511719 7.851562 Z M 0.488281 7.851562 " fill-rule="nonzero"/></g></g></g><g clip-path="url(#738e1919a7)"><path fill="#777bb3" d="M 17.652344 26.824219 C 27.671875 26.824219 35.792969 22.738281 35.792969 17.703125 C 35.792969 12.664062 27.671875 8.582031 17.652344 8.582031 C 7.636719 8.582031 -0.484375 12.664062 -0.484375 17.703125 C -0.484375 22.738281 7.636719 26.824219 17.652344 26.824219 " fill-opacity="1" fill-rule="nonzero"/></g><path fill="#000000" d="M 9.03125 18.832031 C 9.855469 18.832031 10.472656 18.683594 10.859375 18.386719 C 11.246094 18.089844 11.511719 17.582031 11.652344 16.871094 C 11.78125 16.207031 11.730469 15.742188 11.503906 15.492188 C 11.269531 15.238281 10.769531 15.105469 10.007812 15.105469 L 8.691406 15.105469 L 7.960938 18.832031 Z M 4.726562 23.421875 C 4.667969 23.421875 4.609375 23.394531 4.570312 23.347656 C 4.527344 23.300781 4.515625 23.242188 4.527344 23.179688 L 6.460938 13.308594 C 6.480469 13.199219 6.546875 13.144531 6.660156 13.144531 L 10.828125 13.144531 C 12.140625 13.144531 13.113281 13.496094 13.726562 14.191406 C 14.34375 14.890625 14.535156 15.871094 14.292969 17.097656 C 14.195312 17.601562 14.027344 18.066406 13.792969 18.480469 C 13.558594 18.898438 13.246094 19.285156 12.871094 19.628906 C 12.417969 20.046875 11.90625 20.351562 11.351562 20.53125 C 10.804688 20.707031 10.105469 20.796875 9.265625 20.796875 L 7.578125 20.796875 L 7.097656 23.257812 C 7.074219 23.367188 7.007812 23.421875 6.894531 23.421875 Z M 4.726562 23.421875 " fill-opacity="1" fill-rule="nonzero"/><path fill="#ffffff" d="M 8.859375 15.308594 L 10.007812 15.308594 C 10.925781 15.308594 11.242188 15.507812 11.351562 15.628906 C 11.53125 15.824219 11.566406 16.242188 11.449219 16.832031 C 11.320312 17.492188 11.078125 17.960938 10.734375 18.222656 C 10.382812 18.492188 9.808594 18.628906 9.03125 18.628906 L 8.210938 18.628906 L 8.863281 15.308594 Z M 10.828125 12.9375 L 6.660156 12.9375 C 6.4375 12.9375 6.300781 13.050781 6.257812 13.269531 L 4.324219 23.140625 C 4.300781 23.269531 4.328125 23.378906 4.410156 23.476562 C 4.492188 23.578125 4.597656 23.625 4.726562 23.625 L 6.894531 23.625 C 7.121094 23.625 7.253906 23.515625 7.296875 23.296875 L 7.746094 21 L 9.265625 21 C 10.125 21 10.847656 20.910156 11.414062 20.726562 C 12 20.535156 12.535156 20.21875 13.011719 19.777344 C 13.402344 19.417969 13.726562 19.015625 13.972656 18.582031 C 14.214844 18.144531 14.394531 17.660156 14.496094 17.136719 C 14.75 15.84375 14.542969 14.808594 13.882812 14.058594 C 13.230469 13.316406 12.203125 12.941406 10.832031 12.941406 M 7.714844 19.035156 L 9.03125 19.035156 C 9.90625 19.035156 10.558594 18.875 10.984375 18.546875 C 11.414062 18.21875 11.703125 17.675781 11.851562 16.910156 C 11.996094 16.175781 11.929688 15.660156 11.65625 15.355469 C 11.382812 15.054688 10.832031 14.902344 10.007812 14.902344 L 8.523438 14.902344 L 7.714844 19.035156 M 10.832031 13.347656 C 12.085938 13.347656 13 13.671875 13.574219 14.324219 C 14.148438 14.980469 14.320312 15.890625 14.09375 17.0625 C 14 17.542969 13.839844 17.984375 13.613281 18.382812 C 13.390625 18.78125 13.09375 19.148438 12.730469 19.480469 C 12.296875 19.882812 11.816406 20.167969 11.289062 20.339844 C 10.757812 20.507812 10.085938 20.59375 9.265625 20.59375 L 7.410156 20.59375 L 6.894531 23.21875 L 4.726562 23.21875 L 6.660156 13.347656 L 10.832031 13.347656 " fill-opacity="1" fill-rule="nonzero"/><path fill="#000000" d="M 19.265625 20.796875 C 19.203125 20.796875 19.144531 20.769531 19.105469 20.722656 C 19.066406 20.675781 19.050781 20.613281 19.0625 20.554688 L 19.917969 16.1875 C 20 15.769531 19.980469 15.472656 19.863281 15.347656 C 19.789062 15.269531 19.574219 15.140625 18.933594 15.140625 L 17.382812 15.140625 L 16.308594 20.632812 C 16.285156 20.742188 16.21875 20.796875 16.105469 20.796875 L 13.957031 20.796875 C 13.890625 20.796875 13.839844 20.773438 13.796875 20.722656 C 13.757812 20.675781 13.742188 20.617188 13.753906 20.554688 L 15.6875 10.683594 C 15.710938 10.570312 15.777344 10.515625 15.890625 10.515625 L 18.039062 10.515625 C 18.105469 10.515625 18.15625 10.542969 18.199219 10.589844 C 18.238281 10.640625 18.253906 10.695312 18.242188 10.757812 L 17.773438 13.140625 L 19.441406 13.140625 C 20.710938 13.140625 21.574219 13.363281 22.074219 13.820312 C 22.585938 14.289062 22.746094 15.035156 22.550781 16.039062 L 21.648438 20.632812 C 21.628906 20.742188 21.5625 20.796875 21.449219 20.796875 Z M 19.265625 20.796875 " fill-opacity="1" fill-rule="nonzero"/><path fill="#ffffff" d="M 18.039062 10.3125 L 15.890625 10.3125 C 15.664062 10.3125 15.53125 10.421875 15.488281 10.644531 L 13.554688 20.515625 C 13.527344 20.640625 13.558594 20.753906 13.640625 20.851562 C 13.722656 20.953125 13.828125 21 13.957031 21 L 16.105469 21 C 16.332031 21 16.464844 20.890625 16.507812 20.671875 L 17.550781 15.34375 L 18.933594 15.34375 C 19.574219 15.34375 19.707031 15.480469 19.710938 15.484375 C 19.75 15.527344 19.800781 15.71875 19.71875 16.148438 L 18.863281 20.515625 C 18.835938 20.640625 18.867188 20.753906 18.949219 20.851562 C 19.03125 20.953125 19.136719 21 19.265625 21 L 21.449219 21 C 21.675781 21 21.808594 20.890625 21.851562 20.671875 L 22.75 16.078125 C 22.960938 15 22.78125 14.1875 22.214844 13.671875 C 21.671875 13.179688 20.765625 12.9375 19.441406 12.9375 L 18.023438 12.9375 L 18.441406 10.796875 C 18.46875 10.671875 18.4375 10.5625 18.355469 10.460938 C 18.273438 10.363281 18.167969 10.3125 18.039062 10.3125 M 18.039062 10.71875 L 17.527344 13.34375 L 19.441406 13.34375 C 20.648438 13.34375 21.480469 13.554688 21.9375 13.972656 C 22.394531 14.386719 22.53125 15.066406 22.347656 16 L 21.449219 20.59375 L 19.265625 20.59375 L 20.121094 16.226562 C 20.21875 15.730469 20.179688 15.390625 20.011719 15.207031 C 19.84375 15.027344 19.484375 14.9375 18.933594 14.9375 L 17.214844 14.9375 L 16.105469 20.59375 L 13.957031 20.59375 L 15.890625 10.71875 L 18.039062 10.71875 " fill-opacity="1" fill-rule="nonzero"/><path fill="#000000" d="M 25.953125 18.832031 C 26.777344 18.832031 27.390625 18.683594 27.78125 18.386719 C 28.164062 18.089844 28.429688 17.582031 28.570312 16.871094 C 28.699219 16.207031 28.652344 15.742188 28.421875 15.492188 C 28.191406 15.238281 27.6875 15.105469 26.929688 15.105469 L 25.613281 15.105469 L 24.882812 18.832031 Z M 21.648438 23.421875 C 21.585938 23.421875 21.527344 23.394531 21.488281 23.347656 C 21.449219 23.300781 21.433594 23.242188 21.445312 23.179688 L 23.378906 13.308594 C 23.402344 13.195312 23.46875 13.140625 23.582031 13.140625 L 27.75 13.140625 C 29.058594 13.140625 30.035156 13.496094 30.648438 14.191406 C 31.265625 14.890625 31.453125 15.871094 31.214844 17.097656 C 31.117188 17.601562 30.945312 18.066406 30.710938 18.480469 C 30.476562 18.898438 30.167969 19.285156 29.789062 19.628906 C 29.339844 20.046875 28.828125 20.351562 28.273438 20.53125 C 27.726562 20.707031 27.023438 20.796875 26.1875 20.796875 L 24.496094 20.796875 L 24.015625 23.257812 C 23.992188 23.367188 23.925781 23.421875 23.8125 23.421875 L 21.644531 23.421875 Z M 21.648438 23.421875 " fill-opacity="1" fill-rule="nonzero"/><path fill="#ffffff" d="M 25.78125 15.308594 L 26.929688 15.308594 C 27.84375 15.308594 28.164062 15.507812 28.273438 15.628906 C 28.453125 15.824219 28.484375 16.242188 28.371094 16.832031 C 28.242188 17.492188 28 17.960938 27.65625 18.222656 C 27.304688 18.492188 26.730469 18.628906 25.953125 18.628906 L 25.132812 18.628906 Z M 27.75 12.9375 L 23.582031 12.9375 C 23.355469 12.9375 23.222656 13.050781 23.179688 13.269531 L 21.246094 23.140625 C 21.21875 23.269531 21.25 23.378906 21.332031 23.476562 C 21.414062 23.578125 21.519531 23.625 21.648438 23.625 L 23.816406 23.625 C 24.039062 23.625 24.175781 23.515625 24.21875 23.296875 L 24.667969 21 L 26.1875 21 C 27.046875 21 27.769531 20.910156 28.335938 20.726562 C 28.917969 20.535156 29.453125 20.21875 29.929688 19.777344 C 30.324219 19.417969 30.644531 19.015625 30.890625 18.582031 C 31.136719 18.144531 31.3125 17.660156 31.414062 17.136719 C 31.667969 15.84375 31.460938 14.808594 30.800781 14.058594 C 30.148438 13.316406 29.121094 12.941406 27.75 12.941406 M 24.632812 19.035156 L 25.953125 19.035156 C 26.828125 19.035156 27.476562 18.875 27.90625 18.546875 C 28.332031 18.21875 28.621094 17.675781 28.773438 16.910156 C 28.914062 16.175781 28.851562 15.660156 28.574219 15.355469 C 28.300781 15.054688 27.753906 14.902344 26.929688 14.902344 L 25.445312 14.902344 L 24.632812 19.035156 M 27.75 13.347656 C 29.003906 13.347656 29.917969 13.671875 30.492188 14.324219 C 31.070312 14.980469 31.242188 15.890625 31.011719 17.0625 C 30.917969 17.542969 30.757812 17.984375 30.535156 18.382812 C 30.308594 18.78125 30.015625 19.148438 29.652344 19.480469 C 29.21875 19.882812 28.738281 20.167969 28.207031 20.339844 C 27.679688 20.507812 27.003906 20.59375 26.1875 20.59375 L 24.328125 20.59375 L 23.816406 23.21875 L 21.648438 23.21875 L 23.582031 13.347656 L 27.75 13.347656 " fill-opacity="1" fill-rule="nonzero"/></svg>