<svg xmlns="http://www.w3.org/2000/svg" xmlns:xlink="http://www.w3.org/1999/xlink" width="48" zoomAndPan="magnify" viewBox="0 0 36 36.000001" height="48" preserveAspectRatio="xMidYMid meet" version="1.0"><defs><clipPath id="4203d1de12"><path d="M 0.488281 0 L 35.511719 0 L 35.511719 35.027344 L 0.488281 35.027344 Z M 0.488281 0 " clip-rule="nonzero"/></clipPath><clipPath id="69cab334bd"><path d="M 0.488281 1 L 35.511719 1 L 35.511719 33.804688 L 0.488281 33.804688 Z M 0.488281 1 " clip-rule="nonzero"/></clipPath></defs><g clip-path="url(#4203d1de12)"><path fill="#ffffff" d="M 0.488281 0 L 35.511719 0 L 35.511719 35.027344 L 0.488281 35.027344 Z M 0.488281 0 " fill-opacity="1" fill-rule="nonzero"/><path fill="#ffffff" d="M 0.488281 0 L 35.511719 0 L 35.511719 35.027344 L 0.488281 35.027344 Z M 0.488281 0 " fill-opacity="1" fill-rule="nonzero"/></g><g clip-path="url(#69cab334bd)"><path fill="#00d8ff" d="M 29.492188 11.839844 C 29.125 11.714844 28.742188 11.59375 28.34375 11.480469 C 28.410156 11.21875 28.46875 10.957031 28.523438 10.703125 C 29.390625 6.515625 28.824219 3.140625 26.882812 2.03125 C 25.019531 0.964844 21.976562 2.074219 18.902344 4.730469 C 18.605469 4.984375 18.308594 5.257812 18.015625 5.539062 C 17.816406 5.351562 17.621094 5.171875 17.421875 4.996094 C 14.199219 2.160156 10.96875 0.960938 9.03125 2.078125 C 7.171875 3.144531 6.621094 6.316406 7.402344 10.285156 C 7.480469 10.667969 7.566406 11.0625 7.667969 11.460938 C 7.210938 11.589844 6.769531 11.726562 6.347656 11.871094 C 2.570312 13.179688 0.15625 15.226562 0.15625 17.351562 C 0.15625 19.546875 2.746094 21.75 6.679688 23.082031 C 6.992188 23.1875 7.3125 23.289062 7.644531 23.382812 C 7.539062 23.8125 7.445312 24.234375 7.367188 24.644531 C 6.621094 28.546875 7.203125 31.644531 9.058594 32.703125 C 10.972656 33.800781 14.1875 32.675781 17.316406 29.960938 C 17.566406 29.746094 17.8125 29.515625 18.0625 29.277344 C 18.386719 29.585938 18.707031 29.878906 19.027344 30.152344 C 22.058594 32.742188 25.054688 33.785156 26.90625 32.722656 C 28.820312 31.621094 29.445312 28.296875 28.636719 24.246094 C 28.574219 23.9375 28.503906 23.621094 28.421875 23.300781 C 28.648438 23.234375 28.871094 23.164062 29.085938 23.09375 C 33.175781 21.75 35.835938 19.578125 35.835938 17.351562 C 35.835938 15.21875 33.347656 13.15625 29.492188 11.839844 Z M 28.605469 21.660156 C 28.410156 21.722656 28.210938 21.785156 28.007812 21.84375 C 27.554688 20.425781 26.945312 18.917969 26.199219 17.359375 C 26.910156 15.835938 27.496094 14.347656 27.9375 12.9375 C 28.300781 13.042969 28.65625 13.152344 28.996094 13.269531 C 32.296875 14.398438 34.3125 16.066406 34.3125 17.351562 C 34.3125 18.71875 32.136719 20.496094 28.605469 21.660156 Z M 27.140625 24.539062 C 27.5 26.332031 27.546875 27.949219 27.3125 29.214844 C 27.101562 30.351562 26.671875 31.109375 26.144531 31.414062 C 25.019531 32.058594 22.613281 31.21875 20.023438 29.003906 C 19.722656 28.75 19.425781 28.480469 19.125 28.191406 C 20.128906 27.101562 21.132812 25.832031 22.117188 24.421875 C 23.839844 24.273438 25.46875 24.023438 26.949219 23.683594 C 27.019531 23.976562 27.085938 24.261719 27.140625 24.539062 Z M 12.320312 31.300781 C 11.222656 31.6875 10.347656 31.699219 9.820312 31.394531 C 8.695312 30.75 8.226562 28.261719 8.863281 24.929688 C 8.9375 24.546875 9.023438 24.152344 9.125 23.753906 C 10.585938 24.074219 12.203125 24.304688 13.933594 24.441406 C 14.921875 25.820312 15.953125 27.089844 16.996094 28.199219 C 16.769531 28.417969 16.542969 28.625 16.316406 28.820312 C 14.929688 30.019531 13.542969 30.875 12.320312 31.300781 Z M 7.175781 21.652344 C 5.433594 21.0625 3.996094 20.292969 3.011719 19.457031 C 2.128906 18.703125 1.679688 17.957031 1.679688 17.351562 C 1.679688 16.0625 3.617188 14.417969 6.847656 13.300781 C 7.242188 13.164062 7.652344 13.035156 8.078125 12.917969 C 8.523438 14.359375 9.109375 15.867188 9.816406 17.386719 C 9.101562 18.933594 8.507812 20.464844 8.054688 21.925781 C 7.75 21.839844 7.457031 21.746094 7.175781 21.652344 Z M 8.898438 9.996094 C 8.230469 6.59375 8.675781 4.03125 9.796875 3.386719 C 10.988281 2.699219 13.628906 3.675781 16.410156 6.128906 C 16.589844 6.285156 16.765625 6.449219 16.945312 6.621094 C 15.910156 7.722656 14.886719 8.980469 13.90625 10.351562 C 12.226562 10.507812 10.621094 10.753906 9.144531 11.085938 C 9.050781 10.714844 8.96875 10.351562 8.898438 9.996094 Z M 24.289062 13.769531 C 23.9375 13.164062 23.574219 12.570312 23.207031 11.996094 C 24.34375 12.140625 25.433594 12.328125 26.457031 12.5625 C 26.152344 13.539062 25.769531 14.5625 25.316406 15.609375 C 24.992188 15 24.652344 14.386719 24.289062 13.769531 Z M 18.015625 7.699219 C 18.71875 8.457031 19.421875 9.300781 20.113281 10.214844 C 19.417969 10.183594 18.710938 10.167969 17.996094 10.167969 C 17.292969 10.167969 16.589844 10.183594 15.898438 10.214844 C 16.589844 9.308594 17.300781 8.464844 18.015625 7.699219 Z M 11.699219 13.777344 C 11.34375 14.386719 11.007812 14.996094 10.691406 15.609375 C 10.246094 14.566406 9.867188 13.539062 9.554688 12.546875 C 10.574219 12.320312 11.660156 12.132812 12.792969 11.992188 C 12.417969 12.574219 12.050781 13.167969 11.699219 13.777344 Z M 12.824219 22.816406 C 11.65625 22.6875 10.554688 22.511719 9.535156 22.292969 C 9.851562 21.285156 10.238281 20.234375 10.691406 19.167969 C 11.011719 19.78125 11.347656 20.390625 11.703125 21 C 12.066406 21.621094 12.441406 22.226562 12.824219 22.816406 Z M 18.054688 27.109375 C 17.332031 26.335938 16.613281 25.480469 15.910156 24.558594 C 16.59375 24.585938 17.289062 24.601562 17.996094 24.601562 C 18.726562 24.601562 19.445312 24.582031 20.152344 24.554688 C 19.457031 25.488281 18.753906 26.347656 18.054688 27.109375 Z M 25.332031 19.113281 C 25.808594 20.191406 26.210938 21.234375 26.53125 22.226562 C 25.496094 22.460938 24.378906 22.648438 23.203125 22.792969 C 23.574219 22.207031 23.9375 21.605469 24.296875 20.988281 C 24.660156 20.363281 25.003906 19.738281 25.332031 19.113281 Z M 22.976562 20.234375 C 22.417969 21.195312 21.84375 22.109375 21.265625 22.972656 C 20.207031 23.046875 19.113281 23.085938 17.996094 23.085938 C 16.886719 23.085938 15.804688 23.054688 14.765625 22.984375 C 14.160156 22.109375 13.578125 21.191406 13.023438 20.242188 C 12.46875 19.292969 11.960938 18.339844 11.5 17.386719 C 11.960938 16.4375 12.46875 15.480469 13.019531 14.535156 C 13.570312 13.585938 14.148438 12.671875 14.75 11.800781 C 15.808594 11.722656 16.898438 11.679688 17.996094 11.679688 C 19.101562 11.679688 20.191406 11.722656 21.25 11.800781 C 21.84375 12.664062 22.417969 13.578125 22.972656 14.527344 C 23.53125 15.484375 24.042969 16.433594 24.507812 17.367188 C 24.046875 18.316406 23.535156 19.273438 22.976562 20.234375 Z M 26.121094 3.339844 C 27.316406 4.023438 27.78125 6.78125 27.027344 10.398438 C 26.980469 10.628906 26.925781 10.863281 26.867188 11.101562 C 25.386719 10.761719 23.78125 10.511719 22.097656 10.355469 C 21.117188 8.96875 20.101562 7.707031 19.082031 6.617188 C 19.355469 6.355469 19.628906 6.105469 19.902344 5.871094 C 22.535156 3.597656 25 2.699219 26.121094 3.339844 Z M 17.996094 14.191406 C 19.757812 14.191406 21.183594 15.605469 21.183594 17.351562 C 21.183594 19.097656 19.757812 20.515625 17.996094 20.515625 C 16.238281 20.515625 14.8125 19.097656 14.8125 17.351562 C 14.8125 15.605469 16.238281 14.191406 17.996094 14.191406 Z M 17.996094 14.191406 " fill-opacity="1" fill-rule="nonzero"/></g></svg>