<?xml version="1.0" standalone="no"?>
<svg xmlns="http://www.w3.org/2000/svg" xmlns:xlink="http://www.w3.org/1999/xlink" id="wave" viewBox="0 0 1440 490" style="transform:rotate(180deg); transition: 0.3s">
  <defs>
    <linearGradient id="tech-gradient" x1="0" x2="0" y1="0" y2="1">
      <stop offset="0%" stop-color="#4b0082" /> <!-- roxo escuro -->
      <stop offset="100%" stop-color="#8a2be2" /> <!-- azul royal -->
    </linearGradient>
    <style>
      .wave {
        animation: waveAnimation 10s ease-in-out infinite;
      }
      
      @keyframes waveAnimation {
        0% {
          d: path("M0,0L60,10C120,20,240,40,360,70C480,100,600,130,720,120C840,110,960,50,1080,30C1200,10,1320,40,1440,60C1560,80,1680,60,1800,50C1920,40,2040,60,2160,90C2280,120,2400,160,2520,170C2640,180,2760,160,2880,140C3000,120,3120,100,3240,100C3360,100,3480,120,3600,150C3720,180,3840,210,3960,230C4080,250,4200,260,4320,240C4440,220,4560,160,4680,150C4800,140,4920,200,5040,220C5160,240,5280,210,5400,180C5520,150,5640,100,5760,90C5880,80,6000,130,6120,150C6240,170,6360,130,6480,120C6600,110,6720,140,6840,170C6960,200,7080,220,7200,210C7320,200,7440,150,7560,140C7680,130,7800,200,7920,220C8040,240,8160,180,8280,170C8400,160,8520,220,8640,230C8760,240,8880,190,9000,180C9120,170,9240,230,9360,220C9480,210,9600,150,9720,130C9840,110,9960,160,10080,150C10200,140,10320,120,10440,130C10560,140,10680,170,10800,170C10920,170,11040,140,11160,130C11280,120,11400,150,11520,150L11520,490L0,490Z");
        }
        50% {
          d: path("M0,0L60,20C120,40,240,80,360,120C480,160,600,200,720,190C840,180,960,130,1080,100C1200,70,1320,110,1440,130C1560,150,1680,130,1800,120C1920,110,2040,130,2160,160C2280,190,2400,250,2520,260C2640,270,2760,250,2880,230C3000,210,3120,180,3240,180C3360,180,3480,200,3600,230C3720,260,3840,290,3960,310C4080,330,4200,340,4320,320C4440,300,4560,240,4680,230C4800,220,4920,270,5040,300C5160,330,5280,290,5400,260C5520,230,5640,180,5760,170C5880,160,6000,220,6120,240C6240,260,6360,210,6480,200C6600,190,6720,230,6840,260C6960,290,7080,320,7200,310C7320,300,7440,260,7560,250C7680,240,7800,280,7920,290C8040,300,8160,240,8280,220C8400,200,8520,260,8640,270C8760,280,8880,230,9000,220C9120,210,9240,260,9360,250C9480,240,9600,190,9720,170C9840,150,9960,200,10080,190C10200,180,10320,160,10440,180C10560,200,10680,230,10800,230C10920,230,11040,200,11160,190C11280,180,11400,220,11520,220L11520,490L0,490Z");
        }
        100% {
          d: path("M0,0L60,10C120,20,240,40,360,70C480,100,600,130,720,120C840,110,960,50,1080,30C1200,10,1320,40,1440,60C1560,80,1680,60,1800,50C1920,40,2040,60,2160,90C2280,120,2400,160,2520,170C2640,180,2760,160,2880,140C3000,120,3120,100,3240,100C3360,100,3480,120,3600,150C3720,180,3840,210,3960,230C4080,250,4200,260,4320,240C4440,220,4560,160,4680,150C4800,140,4920,200,5040,220C5160,240,5280,210,5400,180C5520,150,5640,100,5760,90C5880,80,6000,130,6120,150C6240,170,6360,130,6480,120C6600,110,6720,140,6840,170C6960,200,7080,220,7200,210C7320,200,7440,150,7560,140C7680,130,7800,200,7920,220C8040,240,8160,180,8280,170C8400,160,8520,220,8640,230C8760,240,8880,190,9000,180C9120,170,9240,230,9360,220C9480,210,9600,150,9720,130C9840,110,9960,160,10080,150C10200,140,10320,120,10440,130C10560,140,10680,170,10800,170C10920,170,11040,140,11160,130C11280,120,11400,150,11520,150L11520,490L0,490Z");
        }
      }
    </style>
  </defs>
  <path class="wave" fill="url(#tech-gradient)" d="M0,0L60,10C120,20,240,40,360,70C480,100,600,130,720,120C840,110,960,50,1080,30C1200,10,1320,40,1440,60C1560,80,1680,60,1800,50C1920,40,2040,60,2160,90C2280,120,2400,160,2520,170C2640,180,2760,160,2880,140C3000,120,3120,100,3240,100C3360,100,3480,120,3600,150C3720,180,3840,210,3960,230C4080,250,4200,260,4320,240C4440,220,4560,160,4680,150C4800,140,4920,200,5040,220C5160,240,5280,210,5400,180C5520,150,5640,100,5760,90C5880,80,6000,130,6120,150C6240,170,6360,130,6480,120C6600,110,6720,140,6840,170C6960,200,7080,220,7200,210C7320,200,7440,150,7560,140C7680,130,7800,200,7920,220C8040,240,8160,180,8280,170C8400,160,8520,220,8640,230C8760,240,8880,190,9000,180C9120,170,9240,230,9360,220C9480,210,9600,150,9720,130C9840,110,9960,160,10080,150C10200,140,10320,120,10440,130C10560,140,10680,170,10800,170C10920,170,11040,140,11160,130C11280,120,11400,150,11520,150L11520,490L0,490Z"/>
</svg>
